<!DOCTYPE svg PUBLIC "-//W3C//DTD SVG 1.1//EN" "http://www.w3.org/Graphics/SVG/1.1/DTD/svg11.dtd">
<!-- Uploaded to: SVG Repo, www.svgrepo.com, Transformed by: SVG Repo Mixer Tools -->
<svg fill="#FFFFFF" version="1.1" id="Capa_1" xmlns="http://www.w3.org/2000/svg" xmlns:xlink="http://www.w3.org/1999/xlink" width="800px" height="800px" viewBox="0 0 180.222 180.222" xml:space="preserve" stroke="#FFFFFF">
<g id="SVGRepo_bgCarrier" stroke-width="0"/>
<g id="SVGRepo_tracerCarrier" stroke-linecap="round" stroke-linejoin="round"/>
<g id="SVGRepo_iconCarrier"> <g> <path d="M175.575,93.693c-5.42-11.271-14.9-19.75-26.701-23.884c-14.583-5.088-30.281-4.241-44.226,2.463 c-2.161,1.047-4.177,2.286-6.168,3.559l4.847-7.151c0.518-0.768,0.572-1.745,0.141-2.569c-0.438-0.816-1.285-1.328-2.211-1.328 H97.56c0.274-0.816,0.512-1.653,0.512-2.536c0-0.569-0.207-1.057-0.316-1.592c4.433-0.624,10.114-2.231,14.212-6.409 c7.545-7.663,6.497-20.49,6.448-21.032c-0.109-1.208-1.084-2.189-2.302-2.256c-0.006,0-13.286-1.022-20.935,6.747 c-0.834,0.84-1.516,1.751-2.152,2.707C94.443,31.112,102,23.903,111.45,22.98c0.853,1.087,2.089,1.814,3.568,1.814 c2.539,0,4.591-2.037,4.591-4.569c0-2.546-2.052-4.583-4.591-4.583c-1.724,0-3.166,0.977-3.952,2.399 c-7.599,0.707-14.236,4.64-18.462,10.525V13.585c1.242-0.837,2.095-2.171,2.095-3.766c0-2.533-2.059-4.576-4.589-4.576 c-2.539,0-4.576,2.043-4.576,4.576c0,1.595,0.853,2.929,2.083,3.766v14.982c-4.229-5.873-10.869-9.807-18.462-10.525 c-0.779-1.422-2.229-2.399-3.955-2.399c-2.536,0-4.588,2.037-4.588,4.583c0,2.533,2.052,4.569,4.588,4.569 c1.479,0,2.731-0.728,3.568-1.814c9.451,0.91,17.016,8.138,18.423,17.431c-0.633-0.932-1.315-1.867-2.143-2.695 c-7.657-7.782-20.956-6.759-20.944-6.759c-1.218,0.101-2.189,1.048-2.302,2.25c-0.049,0.548-1.102,13.381,6.436,21.032 c4.113,4.184,9.795,5.812,14.228,6.415c-0.113,0.536-0.316,1.023-0.316,1.592c0,0.907,0.234,1.72,0.518,2.536h-3.699 c-0.923,0-1.769,0.511-2.208,1.328c-0.435,0.825-0.38,1.802,0.137,2.569l4.847,7.151c-1.991-1.272-4.003-2.512-6.168-3.559 c-13.929-6.698-29.636-7.566-44.226-2.463C19.552,73.944,10.068,82.423,4.649,93.693c-5.419,11.266-6.123,23.968-1.994,35.762 c6.926,19.729,28.619,30.19,48.354,23.255c4.713-1.675,8.68-4.433,11.922-7.818c-0.088,0.901-0.268,1.735-0.268,2.655 c0,15.137,12.306,27.432,27.435,27.432c15.122,0,27.429-12.331,27.429-27.432c0-0.914-0.183-1.767-0.269-2.668 c3.246,3.398,7.198,6.169,11.936,7.831c4.128,1.431,8.342,2.132,12.488,2.132c15.668,0,30.385-9.779,35.859-25.38 C181.707,117.661,180.994,104.959,175.575,93.693z M87.635,103.607h-6.503c1.69-3.971,3.964-7.562,6.503-10.937V103.607z M87.635,126.039v43.026c-3.854-2.558-7.39-10.632-7.39-21.519C80.246,136.671,83.781,128.585,87.635,126.039z M92.622,169.065 v-43.026c3.854,2.558,7.374,10.632,7.374,21.508C99.996,158.434,96.476,166.508,92.622,169.065z M92.622,92.671 c2.552,3.374,4.811,6.966,6.504,10.937h-6.504V92.671z M98.742,41.175c4.293-4.338,11.161-5.173,14.772-5.301 c-0.062,3.538-0.779,10.489-5.066,14.849c-3.909,3.964-9.87,4.969-13.658,5.212c-0.341-0.255-0.663-0.524-1.06-0.715 C93.882,51.508,94.729,45.249,98.742,41.175z M66.746,35.896c3.617,0.125,10.489,0.941,14.766,5.307 c4.016,4.046,4.868,10.318,5.023,14.042c-0.377,0.186-0.715,0.441-1.053,0.697c-3.784-0.244-9.751-1.228-13.667-5.213 C67.544,46.391,66.822,39.442,66.746,35.896z M69.952,113.38c-4.591-13.085-18.986-20.009-32.087-15.424 c-5.2,1.815-9.383,5.56-11.779,10.534c-2.393,4.969-2.713,10.564-0.886,15.766c1.504,4.293,4.585,7.738,8.68,9.712 c4.098,1.979,8.71,2.234,13,0.725c7.334-2.563,11.219-10.632,8.649-17.976c-0.457-1.303-1.878-1.967-3.175-1.534 c-1.297,0.444-1.988,1.882-1.532,3.185c1.656,4.75-0.849,9.962-5.59,11.612c-3.029,1.071-6.29,0.895-9.188-0.512 c-2.895-1.407-5.069-3.817-6.135-6.875c-1.385-3.945-1.142-8.178,0.673-11.959c1.814-3.769,4.981-6.601,8.927-7.958 c10.507-3.696,22.055,1.863,25.736,12.342c4.713,13.457-2.402,28.242-15.85,32.967c-17.162,6.004-35.984-3.068-42.003-20.191 c-3.69-10.527-3.054-21.885,1.784-31.955c4.838-10.054,13.311-17.632,23.851-21.334c13.323-4.683,27.678-3.879,40.411,2.226 c4.899,2.369,9.326,5.392,13.192,8.997c-5.026,5.599-8.942,12.205-11.502,19.524c-0.268,0.768-0.152,1.607,0.317,2.266 c0.469,0.651,1.221,1.047,2.033,1.047h7.807c-0.019,0.036-0.058,0.049-0.082,0.085l-8.668,12.787 c-0.497,0.743-0.542,1.693-0.162,2.473c-1.845,1.084-3.577,2.314-5.118,3.775C71.916,123.031,71.624,118.16,69.952,113.38z M67.681,147.547c0-8.623,4.938-16.027,12.09-19.79c-2.786,4.956-4.506,11.923-4.506,19.79c0,7.879,1.72,14.845,4.506,19.802 C72.619,163.585,67.681,156.181,67.681,147.547z M100.477,167.349c2.783-4.957,4.506-11.923,4.506-19.802 c0-7.867-1.711-14.834-4.506-19.79c7.154,3.763,12.093,11.167,12.093,19.79C112.57,156.181,107.638,163.585,100.477,167.349z M172.865,127.806c-6.016,17.135-24.862,26.195-41.997,20.204c-13.457-4.726-20.568-19.51-15.855-32.967 c3.684-10.504,15.223-16.052,25.732-12.361c3.939,1.389,7.118,4.214,8.927,7.965c1.814,3.769,2.058,8.025,0.676,11.971 c-1.06,3.033-3.239,5.469-6.138,6.869c-2.893,1.4-6.138,1.589-9.194,0.499c-4.737-1.656-7.246-6.868-5.584-11.606 c0.444-1.303-0.231-2.728-1.534-3.19c-1.291-0.414-2.734,0.231-3.186,1.534c-2.557,7.356,1.315,15.418,8.659,17.981 c4.287,1.505,8.908,1.249,13-0.712c4.093-1.955,7.167-5.42,8.678-9.73c1.82-5.2,1.51-10.79-0.883-15.759 c-2.394-4.981-6.589-8.702-11.783-10.522c-13.092-4.555-27.486,2.338-32.083,15.442c-1.681,4.762-1.967,9.633-1.315,14.321 c-1.693-1.595-3.593-2.922-5.633-4.049c0.098-0.256,0.164-0.512,0.164-0.811c0-0.779-0.365-1.467-0.913-1.924l-8.312-12.264 c-0.019-0.036-0.055-0.049-0.079-0.072h8.555c0.811,0,1.565-0.391,2.034-1.072c0.469-0.646,0.585-1.485,0.316-2.253 c-2.563-7.319-6.479-13.911-11.502-19.521c3.866-3.605,8.3-6.635,13.183-8.991c12.732-6.119,27.091-6.917,40.414-2.24 c10.54,3.699,19.01,11.273,23.852,21.339C175.921,105.921,176.555,117.266,172.865,127.806z"/> </g> </g>
</svg>